<?xml version="1.0" encoding="UTF-8"?>
<svg width="24px" height="24px" viewBox="0 0 24 24" version="1.1" xmlns="http://www.w3.org/2000/svg" xmlns:xlink="http://www.w3.org/1999/xlink">
    <title>编组 2</title>
    <defs>
        <linearGradient x1="83.6306176%" y1="78.8528311%" x2="7.53932005%" y2="1.25122135e-11%" id="linearGradient-1">
            <stop stop-color="#AE7FEC" offset="0%"></stop>
            <stop stop-color="#63A8FD" offset="42.0724803%"></stop>
            <stop stop-color="#5FBBF6" offset="100%"></stop>
        </linearGradient>
    </defs>
    <g id="页面" stroke="none" stroke-width="1" fill="none" fill-rule="evenodd">
        <g id="02-1-PR/修改发版-消息通知" transform="translate(-1364.000000, -828.000000)">
            <g id="编组-2" transform="translate(1364.000000, 828.000000)">
                <rect id="矩形" x="0" y="0" width="24" height="24"></rect>
                <g id="sendfasong" transform="translate(3.000000, 3.000000)" fill="url(#linearGradient-1)">
                    <path d="M0.501774338,7.78561625 C-0.398154541,6.88487067 -0.0352404428,5.35147798 1.17283846,4.94851284 L15.7433491,0.0908621445 C17.0822079,-0.355423785 18.3548593,0.918044131 17.9093904,2.25690192 L13.0509188,16.8265845 C12.6479534,18.0354799 11.1137422,18.3983937 10.2138133,17.4976482 L7.62273746,14.9065742 C7.39423329,14.7077125 7.29199319,14.4002949 7.35588273,14.1041899 C7.41977226,13.8080849 7.63967578,13.5701749 7.92984827,13.4832262 C8.22002075,13.3962774 8.53451907,13.4740564 8.75071371,13.6862355 L8.75643533,13.6805139 L11.4390571,16.3631337 L11.4423266,16.3631337 C11.4561586,16.3598971 11.4690373,16.3534578 11.4799258,16.3443342 C11.4840127,16.3410647 11.491369,16.3337083 11.4995428,16.3100045 L15.6280993,3.92679598 L6.32801689,12.2067895 L6.32801689,15.6201412 C6.3280616,15.9121905 6.17228076,16.1820742 5.91936597,16.3281117 C5.66645118,16.4741492 5.35483441,16.4741492 5.10191962,16.3281117 C4.84900484,16.1820742 4.69322399,15.9121905 4.69326871,15.6201412 L4.69326871,12.2059721 C4.69342882,11.7397075 4.8926824,11.2956995 5.24090934,10.9856335 L15.4221211,1.92096141 L1.69023627,6.49907037 C1.66571504,6.50724411 1.65917606,6.51541784 1.65590655,6.51868734 C1.64693444,6.52987546 1.6407688,6.5430475 1.63792434,6.55710389 L1.63710696,6.56037339 L4.33771097,9.26097543 L4.35078895,9.27405339 L4.35732795,9.28059239 C4.67129281,9.61374251 4.65573989,10.1383327 4.32258954,10.4522973 C3.98943919,10.7662619 3.46484866,10.750709 3.15088379,10.4175589 L3.14271004,10.4257327 L0.502591718,7.78561625 L0.501774338,7.78561625 Z" id="路径"></path>
                </g>
            </g>
        </g>
    </g>
</svg>