<?xml version="1.0" encoding="UTF-8"?>
<svg width="24px" height="24px" viewBox="0 0 24 24" version="1.1" xmlns="http://www.w3.org/2000/svg" xmlns:xlink="http://www.w3.org/1999/xlink">
    <title>编组 14</title>
    <g id="页面" stroke="none" stroke-width="1" fill="none" fill-rule="evenodd">
        <g id="01-3-PR/预生产紧急发版申请" transform="translate(-708.000000, -534.000000)">
            <g id="编组-14" transform="translate(708.000000, 534.000000)">
                <rect id="矩形备份-8" opacity="0.200000003" x="0" y="0" width="24" height="24"></rect>
                <path d="M4.8,2.4 L14.751301,2.4 C14.910532,2.4 15.0632327,2.4632942 15.1757712,2.5759422 L19.8,7.20466856 L19.8,7.20466856 L19.8,21 C19.8,21.3313708 19.5313708,21.6 19.2,21.6 L4.8,21.6 C4.46862915,21.6 4.2,21.3313708 4.2,21 L4.2,3 C4.2,2.66862915 4.46862915,2.4 4.8,2.4 Z" id="矩形" stroke="#1A2446" stroke-width="1.8" stroke-linecap="round" stroke-linejoin="round"></path>
                <path d="M15,7.2 L15,2.4 L15,2.4 L18.9123393,6.8013817 C19.1324901,7.04905136 19.1101817,7.42829478 18.862512,7.64844559 C18.7526813,7.74607286 18.6108422,7.8 18.4638937,7.8 L15.6,7.8 C15.2686292,7.8 15,7.53137085 15,7.2 Z" id="矩形" stroke="#1A2446" stroke-width="1.8" stroke-linecap="round" stroke-linejoin="round"></path>
                <path d="M12.0385224,15.6 L16.2385224,15.6 M7.85309889,12.6350862 L9.63599892,14.4179862 L7.85309889,16.2008862" id="形状结合" stroke="#3366FF" stroke-width="1.8" stroke-linecap="round" stroke-linejoin="round"></path>
            </g>
        </g>
    </g>
</svg>