<?xml version="1.0" encoding="UTF-8"?>
<svg width="24px" height="24px" viewBox="0 0 24 24" version="1.1" xmlns="http://www.w3.org/2000/svg" xmlns:xlink="http://www.w3.org/1999/xlink">
    <title>编组 16</title>
    <g id="页面" stroke="none" stroke-width="1" fill="none" fill-rule="evenodd">
        <g id="01-3-PR/预生产紧急发版申请" transform="translate(-567.000000, -534.000000)">
            <g id="编组-16" transform="translate(567.000000, 534.000000)">
                <rect id="矩形" opacity="0.200000003" x="0" y="0" width="24" height="24"></rect>
                <path d="M15.6776916,7.02633363 L20.6276916,4.88133363 C21.1977876,4.63429204 21.8602085,4.89617936 22.1072501,5.46627534 C22.1684327,5.60746589 22.2,5.75970687 22.2,5.9135837 L22.2,18.0864163 C22.2,18.7077366 21.6963203,19.2114163 21.075,19.2114163 C20.9211232,19.2114163 20.7688822,19.1798489 20.6276916,19.1186664 L15.6776916,16.9736664 C15.2662684,16.795383 15,16.3898068 15,15.9414163 L15,8.0585837 C15,7.61019316 15.2662684,7.20461704 15.6776916,7.02633363 Z" id="矩形" stroke="#1A2446" stroke-width="1.8" stroke-linecap="round" stroke-linejoin="round"></path>
                <path d="M2.47769163,7.02633363 L7.42769163,4.88133363 C7.99778761,4.63429204 8.66020849,4.89617936 8.90725008,5.46627534 C8.96843265,5.60746589 9,5.75970687 9,5.9135837 L9,18.0864163 C9,18.7077366 8.49632034,19.2114163 7.875,19.2114163 C7.72112317,19.2114163 7.56888219,19.1798489 7.42769163,19.1186664 L2.47769163,16.9736664 C2.06626837,16.795383 1.8,16.3898068 1.8,15.9414163 L1.8,8.0585837 C1.8,7.61019316 2.06626837,7.20461704 2.47769163,7.02633363 Z" id="矩形备份-9" stroke="#1A2446" stroke-width="1.8" stroke-linecap="round" stroke-linejoin="round" transform="translate(5.400000, 12.000000) scale(-1, 1) translate(-5.400000, -12.000000) "></path>
                <line x1="12" y1="4.80579251" x2="12" y2="19.2113497" id="路径-23" stroke="#3366FF" stroke-width="1.8" stroke-linecap="round" stroke-linejoin="round"></line>
            </g>
        </g>
    </g>
</svg>